<svg width="24" height="26" viewBox="0 0 24 26" fill="none" xmlns="http://www.w3.org/2000/svg">
<path d="M18 8.54329C19.6569 8.54329 21 7.10891 21 5.33952C21 3.57012 19.6569 2.13574 18 2.13574C16.3431 2.13574 15 3.57012 15 5.33952C15 7.10891 16.3431 8.54329 18 8.54329Z" stroke="#0451DD" stroke-width="2" stroke-linecap="round" stroke-linejoin="round"/>
<path d="M6 16.0189C7.65685 16.0189 9 14.5845 9 12.8151C9 11.0457 7.65685 9.61133 6 9.61133C4.34315 9.61133 3 11.0457 3 12.8151C3 14.5845 4.34315 16.0189 6 16.0189Z" stroke="#0451DD" stroke-width="2" stroke-linecap="round" stroke-linejoin="round"/>
<path d="M18 23.4945C19.6569 23.4945 21 22.0601 21 20.2907C21 18.5213 19.6569 17.0869 18 17.0869C16.3431 17.0869 15 18.5213 15 20.2907C15 22.0601 16.3431 23.4945 18 23.4945Z" stroke="#0451DD" stroke-width="2" stroke-linecap="round" stroke-linejoin="round"/>
<path d="M8.59 14.4277L15.42 18.6781" stroke="#0451DD" stroke-width="2" stroke-linecap="round" stroke-linejoin="round"/>
<path d="M15.41 6.95215L8.59 11.2025" stroke="#0451DD" stroke-width="2" stroke-linecap="round" stroke-linejoin="round"/>
</svg>
