<svg width="24" height="24" viewBox="0 0 24 24" fill="none" xmlns="http://www.w3.org/2000/svg">
<g clip-path="url(#clip0_1663_139294)">
<path d="M8.52539 22.3248C7.72539 22.3248 7.01706 22.0873 6.40039 21.6123C5.78372 21.1373 5.35039 20.5248 5.10039 19.7748C4.83372 20.2081 4.50872 20.5456 4.12539 20.7873C3.74206 21.029 3.28372 21.1498 2.75039 21.1498C1.96706 21.1498 1.31706 20.8748 0.800391 20.3248C0.283724 19.7748 0.0253906 19.1248 0.0253906 18.3748C0.0253906 17.5581 0.279557 16.9123 0.787891 16.4373C1.29622 15.9623 1.94206 15.7165 2.72539 15.6998C2.42539 15.3665 2.19206 14.979 2.02539 14.5373C1.85872 14.0956 1.77539 13.6498 1.77539 13.1998C1.77539 12.5665 1.93789 11.9748 2.26289 11.4248C2.58789 10.8748 3.05039 10.4331 3.65039 10.0998C3.73372 10.3165 3.83789 10.5498 3.96289 10.7998C4.08789 11.0498 4.21706 11.2665 4.35039 11.4498C4.01706 11.6665 3.75456 11.9331 3.56289 12.2498C3.37122 12.5665 3.27539 12.8998 3.27539 13.2498C3.27539 14.2498 3.67956 14.879 4.48789 15.1373C5.29622 15.3956 6.07539 15.5998 6.82539 15.7498L7.10039 16.2248C6.90039 16.8081 6.73789 17.2873 6.61289 17.6623C6.48789 18.0373 6.42539 18.3831 6.42539 18.6998C6.42539 19.2665 6.63789 19.7623 7.06289 20.1873C7.48789 20.6123 7.98372 20.8248 8.55039 20.8248C9.23372 20.8248 9.79622 20.5373 10.2379 19.9623C10.6796 19.3873 11.0379 18.704 11.3129 17.9123C11.5879 17.1206 11.8004 16.3206 11.9504 15.5123C12.1004 14.704 12.2254 14.0748 12.3254 13.6248L13.7754 14.0248C13.6254 14.7415 13.4504 15.5748 13.2504 16.5248C13.0504 17.4748 12.7629 18.379 12.3879 19.2373C12.0129 20.0956 11.5212 20.8248 10.9129 21.4248C10.3046 22.0248 9.50872 22.3248 8.52539 22.3248ZM2.77539 19.6498C3.12539 19.6498 3.42122 19.529 3.66289 19.2873C3.90456 19.0456 4.02539 18.7498 4.02539 18.3998C4.02539 18.0498 3.90456 17.754 3.66289 17.5123C3.42122 17.2706 3.12539 17.1498 2.77539 17.1498C2.42539 17.1498 2.12956 17.2706 1.88789 17.5123C1.64622 17.754 1.52539 18.0498 1.52539 18.3998C1.52539 18.7498 1.64622 19.0456 1.88789 19.2873C2.12956 19.529 2.42539 19.6498 2.77539 19.6498ZM10.2754 14.8998C9.52539 14.2331 8.84206 13.6123 8.22539 13.0373C7.60872 12.4623 7.07956 11.8998 6.63789 11.3498C6.19622 10.7998 5.85456 10.2581 5.61289 9.7248C5.37122 9.19147 5.25039 8.6248 5.25039 8.0248C5.25039 7.0248 5.60039 6.1748 6.30039 5.4748C7.00039 4.7748 7.85039 4.4248 8.85039 4.4248C9.00039 4.4248 9.14206 4.42897 9.27539 4.4373C9.40872 4.44564 9.54206 4.46647 9.67539 4.4998C9.52539 4.21647 9.41706 3.9748 9.35039 3.7748C9.28372 3.5748 9.25039 3.3748 9.25039 3.1748C9.25039 2.40814 9.51706 1.75814 10.0504 1.2248C10.5837 0.691471 11.2337 0.424805 12.0004 0.424805C12.7671 0.424805 13.4171 0.691471 13.9504 1.2248C14.4837 1.75814 14.7504 2.40814 14.7504 3.1748C14.7504 3.35814 14.7212 3.55397 14.6629 3.7623C14.6046 3.97064 14.4921 4.21647 14.3254 4.4998C14.4587 4.46647 14.5921 4.44564 14.7254 4.4373C14.8587 4.42897 15.0004 4.4248 15.1504 4.4248C16.1004 4.4248 16.9046 4.72897 17.5629 5.3373C18.2212 5.94564 18.6004 6.6998 18.7004 7.5998C18.4671 7.58314 18.2171 7.57897 17.9504 7.5873C17.6837 7.59564 17.4337 7.61647 17.2004 7.6498C17.1171 7.1498 16.8921 6.7373 16.5254 6.4123C16.1587 6.0873 15.7004 5.9248 15.1504 5.9248C14.5337 5.9248 14.0462 6.09564 13.6879 6.4373C13.3296 6.77897 12.8504 7.2998 12.2504 7.9998H11.7254C11.1087 7.26647 10.6212 6.7373 10.2629 6.4123C9.90456 6.0873 9.43372 5.9248 8.85039 5.9248C8.25039 5.9248 7.75039 6.1248 7.35039 6.5248C6.95039 6.9248 6.75039 7.4248 6.75039 8.0248C6.75039 8.4248 6.85872 8.83314 7.07539 9.2498C7.29206 9.66647 7.60039 10.1123 8.00039 10.5873C8.40039 11.0623 8.88372 11.5623 9.45039 12.0873C10.0171 12.6123 10.6504 13.1915 11.3504 13.8248L10.2754 14.8998ZM12.0004 4.4248C12.3504 4.4248 12.6462 4.30397 12.8879 4.0623C13.1296 3.82064 13.2504 3.5248 13.2504 3.1748C13.2504 2.8248 13.1296 2.52897 12.8879 2.2873C12.6462 2.04564 12.3504 1.9248 12.0004 1.9248C11.6504 1.9248 11.3546 2.04564 11.1129 2.2873C10.8712 2.52897 10.7504 2.8248 10.7504 3.1748C10.7504 3.5248 10.8712 3.82064 11.1129 4.0623C11.3546 4.30397 11.6504 4.4248 12.0004 4.4248ZM15.4504 22.3498C15.0837 22.3498 14.7212 22.2915 14.3629 22.1748C14.0046 22.0581 13.6587 21.8831 13.3254 21.6498C13.4587 21.4498 13.5921 21.2248 13.7254 20.9748C13.8587 20.7248 13.9671 20.4915 14.0504 20.2748C14.2837 20.4581 14.5212 20.5956 14.7629 20.6873C15.0046 20.779 15.2504 20.8248 15.5004 20.8248C16.0837 20.8248 16.5796 20.6123 16.9879 20.1873C17.3962 19.7623 17.6004 19.2665 17.6004 18.6998C17.6004 18.3665 17.5337 18.0123 17.4004 17.6373C17.2671 17.2623 17.1087 16.7915 16.9254 16.2248L17.2004 15.7498C17.9671 15.6165 18.7504 15.4206 19.5504 15.1623C20.3504 14.904 20.7504 14.2748 20.7504 13.2748C20.7504 12.5415 20.4837 11.9956 19.9504 11.6373C19.4171 11.279 18.8254 11.0998 18.1754 11.0998C17.4754 11.0998 16.6462 11.2331 15.6879 11.4998C14.7296 11.7665 13.6171 12.1081 12.3504 12.5248L11.9754 11.0748C13.2421 10.6581 14.3837 10.3081 15.4004 10.0248C16.4171 9.74147 17.3421 9.5998 18.1754 9.5998C19.2421 9.5998 20.1879 9.92064 21.0129 10.5623C21.8379 11.204 22.2504 12.0998 22.2504 13.2498C22.2504 13.6998 22.1671 14.1415 22.0004 14.5748C21.8337 15.0081 21.6004 15.3915 21.3004 15.7248C22.0671 15.7415 22.7087 15.9915 23.2254 16.4748C23.7421 16.9581 24.0004 17.5998 24.0004 18.3998C24.0004 19.1498 23.7421 19.7998 23.2254 20.3498C22.7087 20.8998 22.0587 21.1748 21.2754 21.1748C20.7587 21.1748 20.3004 21.054 19.9004 20.8123C19.5004 20.5706 19.1754 20.2331 18.9254 19.7998C18.6587 20.5498 18.2171 21.1623 17.6004 21.6373C16.9837 22.1123 16.2671 22.3498 15.4504 22.3498ZM21.2754 19.6748C21.6087 19.6748 21.8962 19.554 22.1379 19.3123C22.3796 19.0706 22.5004 18.7748 22.5004 18.4248C22.5004 18.0915 22.3754 17.7956 22.1254 17.5373C21.8754 17.279 21.5837 17.1498 21.2504 17.1498C20.9171 17.1498 20.6254 17.2748 20.3754 17.5248C20.1254 17.7748 20.0004 18.0665 20.0004 18.3998C20.0004 18.7331 20.1296 19.029 20.3879 19.2873C20.6462 19.5456 20.9421 19.6748 21.2754 19.6748Z" fill="#1ED760"/>
</g>
<defs>
<clipPath id="clip0_1663_139294">
<rect width="24" height="24" fill="white"/>
</clipPath>
</defs>
</svg>
