<svg width="24" height="26" viewBox="0 0 24 26" fill="none" xmlns="http://www.w3.org/2000/svg">
<path d="M6.54 5.33971C6.6 6.29016 6.75 7.21925 6.99 8.10563L5.79 9.38714C5.38 8.10563 5.12 6.74937 5.03 5.33971H6.54V5.33971ZM16.4 18.1762C17.25 18.4325 18.12 18.5926 19 18.6567V20.2479C17.68 20.1518 16.41 19.8742 15.2 19.447L16.4 18.1762V18.1762ZM7.5 3.20386H4C3.45 3.20386 3 3.68442 3 4.27178C3 14.2996 10.61 22.4265 20 22.4265C20.55 22.4265 21 21.9459 21 21.3586V17.6315C21 17.0442 20.55 16.5636 20 16.5636C18.76 16.5636 17.55 16.35 16.43 15.9549C16.33 15.9122 16.22 15.9015 16.12 15.9015C15.86 15.9015 15.61 16.0083 15.41 16.2112L13.21 18.5606C10.38 17.0121 8.06 14.5452 6.62 11.523L8.82 9.17356C9.1 8.87454 9.18 8.45805 9.07 8.08427C8.7 6.8882 8.5 5.60669 8.5 4.27178C8.5 3.68442 8.05 3.20386 7.5 3.20386Z" fill="#0451DD"/>
</svg>
