<?xml version="1.0" encoding="utf-8"?>
<!-- Generator: Adobe Illustrator 27.1.1, SVG Export Plug-In . SVG Version: 6.00 Build 0)  -->
<svg version="1.1" id="Capa_1" xmlns="http://www.w3.org/2000/svg" xmlns:xlink="http://www.w3.org/1999/xlink" x="0px" y="0px"
	 viewBox="0 0 74 20" style="enable-background:new 0 0 74 20;" xml:space="preserve">
<style type="text/css">
	.st0{fill:#FFFFFF;}
</style>
<path class="st0" d="M26.4,0c0,0-0.9,0.4-2.2,2.2l-7.1,9.8v5.8c0,1.5,0.5,2.2,0.5,2.2H8.8c0,0,0.5-0.7,0.5-2.2v-5.8L2.2,2.3
	C1,0.5,0,0,0,0h8.9c0,0,0.3,1,1.2,2.6l3,5c0,0,0.1,0,0.1,0l3-5C17.2,1,17.4,0,17.4,0H26.4z"/>
<path class="st0" d="M44.1,0H29.4c0,0,0.6,0.7,0.6,2.2v15.6c0,1.5-0.6,2.2-0.6,2.2h8.8c0,0-0.5-0.7-0.5-2.2v-4.8h6.4
	c4,0,7.1-2.3,7.1-6.4C51.2,2.3,48.3,0,44.1,0z M40.2,9.3h-2.5V3.7h2.5c1.8,0,3.2,0.8,3.2,2.8C43.4,8.5,42,9.3,40.2,9.3z"/>
<path class="st0" d="M74,4.7c0,0-0.8-0.6-2.2-0.6H63v4.8h7.1c1.4,0,2.4-0.3,2.4-0.3v4.8c0,0-1-0.4-2.4-0.4h-7v4.8
	c0,1.5,0.5,2.2,0.5,2.2h-8.8c0,0,0.5-0.7,0.5-2.2V2.2c0-1.5-0.6-2.2-0.6-2.2H74L74,4.7L74,4.7z"/>
</svg>
