<svg width="74" height="20" viewBox="0 0 74 20" fill="none" xmlns="http://www.w3.org/2000/svg">
<path d="M26.4021 0.00782792C26.4021 1.79227e-07 25.463 0.430527 24.1823 2.19177L17.0536 11.9451V17.7611C17.0536 19.2876 17.5801 19.9921 17.5801 19.9921H8.75801C8.75801 19.9921 9.30583 19.2797 9.30583 17.769V11.9451L2.2482 2.26222C0.967578 0.508803 0 0 0 0H8.94299C8.94299 0 9.19911 0.986296 10.1382 2.5675L13.1192 7.58508C13.1263 7.59291 13.2188 7.58508 13.2188 7.58508L16.2283 2.5675C17.1674 1.00195 17.4306 0.00782792 17.4306 0.00782792H26.4021Z" fill="#0451DD"/>
<path d="M44.1104 0.0157706H29.4331C29.4331 0.0157706 29.988 0.728095 29.988 2.23885V17.7926C29.988 19.3112 29.4331 20 29.4331 20H38.2551C38.2551 20 37.7215 19.2877 37.7215 17.7691V12.9394H44.1033C48.1515 12.9394 51.2036 10.6458 51.2036 6.49714C51.2107 2.32496 48.2653 0.0157706 44.1104 0.0157706ZM40.2045 9.29947H37.75V3.73395H40.2401C42.0329 3.73395 43.4558 4.50889 43.4558 6.48931C43.4487 8.4619 41.9974 9.29947 40.2045 9.29947Z" fill="#0451DD"/>
<path d="M74 4.68855C74 4.68855 73.1961 4.13278 71.8087 4.13278H63.0365V8.93901H70.087C71.453 8.93901 72.4419 8.60242 72.4419 8.60242V13.3695C72.4419 13.3695 71.4388 12.939 70.0514 12.939H63.0365V17.7765C63.0365 19.2795 63.5345 19.9683 63.5345 19.9683H54.7409C54.7409 19.9683 55.2887 19.2873 55.2887 17.7765V2.22281C55.2887 0.696398 54.7267 0.00755674 54.7267 0.00755674H73.9929V4.68855H74Z" fill="#0451DD"/>
</svg>
