<svg width="384" height="360" viewBox="0 0 384 360" fill="none" xmlns="http://www.w3.org/2000/svg">
<rect width="384" height="360" fill="url(#paint0_linear_1502_35418)"/>
<g clip-path="url(#clip0_1502_35418)">
<path d="M229.938 136.092L217.144 154.082C208.315 144.58 196.45 137.56 184.022 141.671C176.968 144 170.084 151.045 167.559 158.245C163.985 169.445 167.772 180.738 176.405 187.835C182.486 192.953 190.829 195.683 199.103 193.362C203.803 191.691 208.289 189.336 211.684 184.901L255.161 123.98C260.45 119.792 266.933 118.376 273.501 120.048C278.738 121.37 283.259 126.812 286.219 131.435L323.375 183.937C326.446 189.251 328.698 197.192 325.295 202.66C322.556 208.486 316.722 212.205 310.802 212.947L259.588 213.297L259.384 189.891C271.889 189.225 284.052 189.362 297.325 189.157L297.342 187.204C287.439 173.786 278.329 159.567 267.521 146.943L266.506 147.506L228.463 201.364C215.386 214.645 196.697 220.061 179.228 215.165C162.322 210.619 147.872 194.505 144.366 177.028C140.314 158.629 147.42 140.571 161.375 129.251C175.355 116.789 196.68 114.964 213.228 122.368C219.216 125.763 225.87 129.738 229.93 136.092H229.938Z" fill="white"/>
<path d="M144.723 144.57C139.606 153.928 138.138 166.305 140.365 177.573L117.931 146.686L116.592 146.669L87.155 187.655C86.8052 189.259 88.5965 188.815 89.3727 189.404L125.523 189.224L125.727 212.639H73.5071C67.8261 211.308 61.1728 208.144 59.228 201.695C55.7392 193.737 60.3966 185.872 64.2606 179.492L103.643 125.071C108.497 119.731 115.321 118.085 122.222 119.535C133.345 122.87 137.78 135.887 144.723 144.57V144.57Z" fill="white"/>
<path d="M71.6992 223.891L75.9386 242.06H72.2195L71.5627 239.006H68.0228L67.3916 242.06H63.9199L68.0228 223.891H71.6992ZM70.1553 231.312L69.7544 228.566H69.7032L69.3279 231.312L68.5773 236.149H71.0339L70.1468 231.312H70.1553Z" fill="white"/>
<path d="M80.382 223.891V235.646C80.382 237.019 80.22 239.092 82.1136 239.092C83.8196 239.092 83.8196 237.77 83.8452 236.413V223.883H87.3339V237.138C87.3339 239.066 87.1207 242.342 82.088 242.342C78.8296 242.342 76.8848 240.772 76.8848 237.377V223.883H80.3735L80.382 223.891Z" fill="white"/>
<path d="M97.4847 223.891V227.26H94.721V242.051H91.2322V227.26H88.4941V223.891H97.4847Z" fill="white"/>
<path d="M110.502 232.976C110.502 239.791 107.414 242.35 104.292 242.35C101.17 242.35 98.0908 239.8 98.0908 232.976C98.0908 226.152 101.179 223.601 104.292 223.601C107.406 223.601 110.502 226.152 110.502 232.976ZM104.292 239.023C106.612 239.023 106.774 234.417 106.774 232.976C106.774 231.364 106.612 226.928 104.292 226.928C101.972 226.928 101.81 231.364 101.81 232.976C101.81 234.417 101.972 239.023 104.292 239.023Z" fill="white"/>
<path d="M117.437 223.891L119.151 234.613H119.194L120.601 223.891H125.284L127.135 242.051H123.544L122.708 228.975H122.657L122.094 233.453L120.601 242.051H117.906L116.2 233.359L115.611 229.316V228.975H115.56L115.048 242.051H111.304L112.848 223.891H117.437Z" fill="white"/>
<path d="M140.34 232.976C140.34 239.791 137.252 242.35 134.139 242.35C131.025 242.35 127.929 239.8 127.929 232.976C127.929 226.152 131.025 223.601 134.139 223.601C137.252 223.601 140.34 226.152 140.34 232.976ZM134.139 239.023C136.459 239.023 136.621 234.417 136.621 232.976C136.621 231.364 136.45 226.928 134.139 226.928C131.827 226.928 131.656 231.364 131.656 232.976C131.656 234.417 131.818 239.023 134.139 239.023Z" fill="white"/>
<path d="M144.536 223.891L146.643 232.609C146.95 233.65 147.061 234.682 147.274 235.714H147.317C147.505 234.656 147.573 233.615 147.855 232.558L149.987 223.883H153.638L148.742 242.052H145.884L140.783 223.883H144.528L144.536 223.891Z" fill="white"/>
<path d="M158.218 223.891V242.051H154.729V223.891H158.218Z" fill="white"/>
<path d="M163.839 223.891V238.682H167.49V242.051H160.351V223.891H163.839Z" fill="white"/>
<path d="M182.92 227.31C182.477 227.191 182.05 227.114 181.607 227.114C178.536 227.114 177.205 229.98 177.205 232.778C177.205 235.576 178.545 238.8 181.59 238.8C182.033 238.8 182.477 238.681 182.929 238.536V241.931C182.409 242.144 181.871 242.238 181.308 242.238C176.276 242.238 173.486 237.563 173.486 232.795C173.486 228.283 176.387 223.66 181.146 223.66C181.752 223.66 182.34 223.779 182.929 224.001V227.302L182.92 227.31Z" fill="white"/>
<path d="M187.842 223.891V238.682H191.493V242.051H184.354V223.891H187.842Z" fill="white"/>
<path d="M196.134 223.891V235.646C196.134 237.019 195.972 239.092 197.866 239.092C199.572 239.092 199.572 237.77 199.597 236.413V223.883H203.086V237.138C203.086 239.066 202.873 242.342 197.84 242.342C194.582 242.342 192.637 240.772 192.637 237.377V223.883H196.125L196.134 223.891Z" fill="white"/>
<path d="M205.125 242.052V223.883H208.546C209.902 223.883 211.079 223.934 212.196 224.872C213.365 225.836 214.005 227.448 214.005 228.967C214.005 230.579 213.416 231.807 212.111 232.72C213.561 233.445 214.286 235.373 214.286 236.942C214.286 240.533 211.71 242.043 208.52 242.043H205.125V242.052ZM208.614 234.127V239.041C210.021 239.117 210.84 238.051 210.84 236.533C210.84 235.108 209.996 234.076 208.614 234.119V234.127ZM208.614 226.902V231.338C209.927 231.338 210.695 230.425 210.695 229.052C210.695 227.679 209.944 226.834 208.614 226.902V226.902Z" fill="white"/>
<path d="M228.095 223.891L232.334 242.06H228.615L227.959 239.006H224.427L223.787 242.06H220.324L224.427 223.891H228.104H228.095ZM226.551 231.312L226.159 228.566H226.108L225.732 231.312L224.99 236.149H227.447L226.56 231.312H226.551Z" fill="white"/>
<path d="M233.393 242.052V223.883H236.907C239.133 223.883 243.117 224.122 243.117 229.086C243.117 231.082 242.349 232.797 240.609 233.786L243.68 242.052H240.003L236.933 233.667H236.89V242.052H233.401H233.393ZM236.881 231.696L237.495 231.722C239.082 231.722 239.722 230.613 239.722 229.12C239.722 227.824 239.108 226.757 237.35 226.851H236.881V231.696Z" fill="white"/>
<path d="M256.79 231.935V233.351C256.79 237.207 255.877 242.342 251.117 242.342C246.358 242.342 244.822 237.087 244.822 233.07C244.822 229.052 246.127 223.601 251.117 223.601C253.813 223.601 255.57 225.333 256.321 227.909L252.926 229.257C252.764 228.344 252.482 226.919 251.151 226.919C248.78 226.783 248.55 231.253 248.55 232.967C248.55 234.844 248.661 239.015 251.245 239.015C253.028 239.015 253.301 236.558 253.301 235.304H251.075V231.935H256.79V231.935Z" fill="white"/>
<path d="M265.32 223.891V227.26H261.78V231.21H264.893V234.588H261.78V238.682H265.362V242.051H258.291V223.891H265.32Z" fill="white"/>
<path d="M270.472 223.891L274.83 234.852L274.873 234.801C274.66 233.931 274.592 232.993 274.592 232.054V223.883H278.089V242.052H274.788L270.48 231.091L270.429 231.142L270.591 232.976L270.617 233.718V242.052H267.128V223.883H270.48L270.472 223.891Z" fill="white"/>
<path d="M288.3 223.891V227.26H285.536V242.051H282.047V227.26H279.301V223.891H288.3Z" fill="white"/>
<path d="M293.034 223.891V242.051H289.545V223.891H293.034Z" fill="white"/>
<path d="M298.51 223.891L302.869 234.852L302.911 234.801C302.698 233.931 302.63 232.993 302.63 232.054V223.883H306.118V242.052H302.817L298.51 231.091L298.467 231.142L298.629 232.976L298.655 233.718V242.052H295.166V223.883H298.518L298.51 223.891Z" fill="white"/>
<path d="M320.006 232.976C320.006 239.791 316.918 242.35 313.805 242.35C310.691 242.35 307.595 239.8 307.595 232.976C307.595 226.152 310.683 223.601 313.805 223.601C316.926 223.601 320.006 226.152 320.006 232.976ZM313.805 239.023C316.125 239.023 316.287 234.417 316.287 232.976C316.287 231.364 316.125 226.928 313.805 226.928C311.484 226.928 311.322 231.364 311.322 232.976C311.322 234.417 311.484 239.023 313.805 239.023Z" fill="white"/>
</g>
<defs>
<linearGradient id="paint0_linear_1502_35418" x1="368.327" y1="6.7347" x2="33.6707" y2="366.306" gradientUnits="userSpaceOnUse">
<stop stop-color="#20CDC0"/>
<stop offset="1" stop-color="#0676DF"/>
</linearGradient>
<clipPath id="clip0_1502_35418">
<rect width="269" height="124.341" fill="white" transform="translate(58 118)"/>
</clipPath>
</defs>
</svg>
