<svg width="384" height="360" viewBox="0 0 384 360" fill="none" xmlns="http://www.w3.org/2000/svg">
<rect width="384" height="360" fill="url(#paint0_linear_1502_35407)"/>
<path d="M129.26 155.296C130.369 155.537 131.221 156.02 131.816 156.743C132.427 157.45 132.732 158.366 132.732 159.491C132.732 160.938 132.194 162.055 131.117 162.843C130.056 163.614 128.481 164 126.391 164H118.628V147.123H125.909C127.79 147.123 129.244 147.501 130.273 148.256C131.318 149.012 131.84 150.08 131.84 151.463C131.84 152.395 131.607 153.191 131.141 153.85C130.691 154.493 130.064 154.975 129.26 155.296ZM120.412 148.594V154.718H125.788C127.155 154.718 128.208 154.46 128.947 153.946C129.686 153.416 130.056 152.652 130.056 151.656C130.056 150.659 129.686 149.904 128.947 149.389C128.208 148.859 127.155 148.594 125.788 148.594H120.412ZM126.367 162.529C127.878 162.529 129.019 162.272 129.791 161.758C130.562 161.243 130.948 160.44 130.948 159.347C130.948 157.241 129.421 156.188 126.367 156.188H120.412V162.529H126.367ZM148.739 162.457V164H136.804V147.123H148.377V148.666H138.589V154.669H147.316V156.188H138.589V162.457H148.739ZM167.037 147.123V164H165.566L154.717 150.306V164H152.933V147.123H154.403L165.277 160.817V147.123H167.037ZM184.48 162.457V164H172.546V147.123H184.118V148.666H174.33V154.669H183.058V156.188H174.33V162.457H184.48ZM190.458 148.666V155.296H199.186V156.839H190.458V164H188.674V147.123H200.247V148.666H190.458ZM203.931 147.123H205.715V164H203.931V147.123ZM218.536 164.145C216.864 164.145 215.353 163.775 214.003 163.036C212.669 162.296 211.616 161.276 210.845 159.974C210.089 158.656 209.712 157.185 209.712 155.561C209.712 153.938 210.089 152.475 210.845 151.173C211.616 149.855 212.677 148.827 214.027 148.087C215.377 147.348 216.888 146.978 218.56 146.978C219.814 146.978 220.971 147.187 222.032 147.605C223.093 148.023 223.993 148.634 224.732 149.438L223.599 150.571C222.281 149.237 220.617 148.57 218.608 148.57C217.274 148.57 216.061 148.875 214.968 149.486C213.875 150.097 213.015 150.932 212.388 151.993C211.777 153.054 211.472 154.243 211.472 155.561C211.472 156.88 211.777 158.069 212.388 159.13C213.015 160.191 213.875 161.026 214.968 161.637C216.061 162.248 217.274 162.553 218.608 162.553C220.633 162.553 222.297 161.878 223.599 160.528L224.732 161.661C223.993 162.465 223.085 163.084 222.008 163.518C220.947 163.936 219.79 164.145 218.536 164.145ZM228.536 147.123H230.32V164H228.536V147.123ZM243.189 164.145C241.517 164.145 239.998 163.775 238.632 163.036C237.282 162.28 236.221 161.251 235.449 159.95C234.694 158.648 234.316 157.185 234.316 155.561C234.316 153.938 234.694 152.475 235.449 151.173C236.221 149.872 237.282 148.851 238.632 148.112C239.998 147.356 241.517 146.978 243.189 146.978C244.86 146.978 246.363 147.348 247.697 148.087C249.047 148.827 250.108 149.855 250.88 151.173C251.651 152.475 252.037 153.938 252.037 155.561C252.037 157.185 251.651 158.656 250.88 159.974C250.108 161.276 249.047 162.296 247.697 163.036C246.363 163.775 244.86 164.145 243.189 164.145ZM243.189 162.553C244.523 162.553 245.728 162.256 246.805 161.661C247.882 161.051 248.726 160.215 249.337 159.154C249.947 158.077 250.253 156.88 250.253 155.561C250.253 154.243 249.947 153.054 249.337 151.993C248.726 150.916 247.882 150.08 246.805 149.486C245.728 148.875 244.523 148.57 243.189 148.57C241.854 148.57 240.641 148.875 239.548 149.486C238.471 150.08 237.619 150.916 236.992 151.993C236.381 153.054 236.076 154.243 236.076 155.561C236.076 156.88 236.381 158.077 236.992 159.154C237.619 160.215 238.471 161.051 239.548 161.661C240.641 162.256 241.854 162.553 243.189 162.553ZM260.689 164.145C259.435 164.145 258.23 163.944 257.073 163.542C255.932 163.14 255.047 162.61 254.421 161.951L255.12 160.576C255.731 161.187 256.542 161.685 257.555 162.071C258.568 162.441 259.612 162.626 260.689 162.626C262.2 162.626 263.333 162.352 264.089 161.806C264.844 161.243 265.222 160.52 265.222 159.636C265.222 158.961 265.013 158.423 264.595 158.021C264.193 157.619 263.695 157.313 263.1 157.105C262.506 156.88 261.678 156.638 260.617 156.381C259.347 156.06 258.334 155.754 257.579 155.465C256.824 155.16 256.173 154.702 255.626 154.091C255.096 153.48 254.83 152.652 254.83 151.607C254.83 150.756 255.056 149.984 255.506 149.293C255.956 148.586 256.647 148.023 257.579 147.605C258.511 147.187 259.669 146.978 261.051 146.978C262.015 146.978 262.956 147.115 263.872 147.388C264.804 147.645 265.608 148.007 266.283 148.473L265.68 149.896C264.973 149.43 264.217 149.084 263.414 148.859C262.61 148.618 261.822 148.497 261.051 148.497C259.572 148.497 258.455 148.787 257.7 149.365C256.96 149.928 256.591 150.659 256.591 151.559C256.591 152.234 256.791 152.781 257.193 153.199C257.611 153.601 258.126 153.914 258.736 154.139C259.363 154.348 260.199 154.581 261.244 154.838C262.481 155.144 263.478 155.449 264.233 155.754C265.005 156.044 265.656 156.494 266.186 157.105C266.717 157.699 266.982 158.511 266.982 159.54C266.982 160.392 266.749 161.171 266.283 161.878C265.833 162.569 265.133 163.124 264.185 163.542C263.237 163.944 262.072 164.145 260.689 164.145Z" fill="white"/>
<path d="M100.468 192.196C102.704 193.025 104.436 194.234 105.662 195.821C106.889 197.408 107.502 199.32 107.502 201.557C107.502 204.876 106.131 207.455 103.39 209.294C100.648 211.098 96.6802 212 91.4856 212H70.1663V174.123H90.4034C95.4537 174.123 99.2594 175.025 101.821 176.828C104.418 178.632 105.717 181.031 105.717 184.025C105.717 185.793 105.266 187.38 104.364 188.787C103.498 190.194 102.199 191.33 100.468 192.196ZM82.7198 183.051V188.679H88.6719C91.4495 188.679 92.8383 187.741 92.8383 185.865C92.8383 183.989 91.4495 183.051 88.6719 183.051H82.7198ZM90.4034 203.072C93.2171 203.072 94.624 202.08 94.624 200.096C94.624 198.112 93.2171 197.12 90.4034 197.12H82.7198V203.072H90.4034ZM137.827 205.399H123.434L120.891 212H107.905L124.462 174.123H137.016L153.573 212H140.371L137.827 205.399ZM134.31 196.2L130.631 186.677L126.951 196.2H134.31ZM192.947 174.123V212H182.45L168.057 194.793V212H155.611V174.123H166.109L180.502 191.33V174.123H192.947ZM218.688 212.866C214.684 212.866 211.077 212.036 207.866 210.377C204.656 208.681 202.13 206.336 200.291 203.342C198.487 200.312 197.585 196.885 197.585 193.061C197.585 189.238 198.487 185.829 200.291 182.835C202.13 179.805 204.656 177.46 207.866 175.8C211.077 174.105 214.684 173.257 218.688 173.257C222.368 173.257 225.65 173.907 228.536 175.205C231.422 176.504 233.803 178.38 235.679 180.833L227.616 188.029C225.271 185.071 222.512 183.592 219.337 183.592C216.668 183.592 214.522 184.458 212.898 186.19C211.275 187.885 210.463 190.176 210.463 193.061C210.463 195.947 211.275 198.256 212.898 199.988C214.522 201.683 216.668 202.531 219.337 202.531C222.512 202.531 225.271 201.052 227.616 198.094L235.679 205.29C233.803 207.743 231.422 209.619 228.536 210.918C225.65 212.216 222.368 212.866 218.688 212.866ZM258.431 212.866C254.355 212.866 250.694 212.018 247.447 210.323C244.201 208.627 241.657 206.282 239.818 203.288C237.978 200.258 237.058 196.849 237.058 193.061C237.058 189.274 237.978 185.883 239.818 182.889C241.657 179.859 244.201 177.496 247.447 175.8C250.694 174.105 254.355 173.257 258.431 173.257C262.508 173.257 266.169 174.105 269.416 175.8C272.662 177.496 275.206 179.859 277.045 182.889C278.885 185.883 279.805 189.274 279.805 193.061C279.805 196.849 278.885 200.258 277.045 203.288C275.206 206.282 272.662 208.627 269.416 210.323C266.169 212.018 262.508 212.866 258.431 212.866ZM258.431 202.531C260.019 202.531 261.444 202.152 262.706 201.394C264.005 200.601 265.033 199.501 265.79 198.094C266.548 196.651 266.927 194.973 266.927 193.061C266.927 191.15 266.548 189.49 265.79 188.083C265.033 186.64 264.005 185.54 262.706 184.783C261.444 183.989 260.019 183.592 258.431 183.592C256.844 183.592 255.401 183.989 254.103 184.783C252.84 185.54 251.83 186.64 251.072 188.083C250.315 189.49 249.936 191.15 249.936 193.061C249.936 194.973 250.315 196.651 251.072 198.094C251.83 199.501 252.84 200.601 254.103 201.394C255.401 202.152 256.844 202.531 258.431 202.531ZM298.562 212.866C295.424 212.866 292.358 212.523 289.364 211.838C286.406 211.116 283.971 210.16 282.059 208.97L286.171 199.663C287.975 200.709 289.995 201.557 292.232 202.206C294.468 202.819 296.615 203.126 298.671 203.126C300.438 203.126 301.701 202.964 302.458 202.639C303.216 202.278 303.595 201.755 303.595 201.07C303.595 200.276 303.09 199.681 302.08 199.284C301.106 198.887 299.482 198.454 297.21 197.986C294.288 197.372 291.853 196.723 289.905 196.038C287.957 195.316 286.261 194.162 284.819 192.575C283.376 190.951 282.654 188.769 282.654 186.027C282.654 183.646 283.321 181.482 284.656 179.534C285.991 177.586 287.975 176.053 290.608 174.935C293.278 173.816 296.506 173.257 300.294 173.257C302.891 173.257 305.434 173.546 307.923 174.123C310.449 174.664 312.667 175.476 314.579 176.558L310.737 185.811C307.022 183.935 303.505 182.997 300.186 182.997C296.903 182.997 295.262 183.791 295.262 185.378C295.262 186.135 295.749 186.713 296.723 187.109C297.697 187.47 299.302 187.867 301.539 188.3C304.424 188.841 306.859 189.472 308.843 190.194C310.827 190.879 312.541 192.015 313.984 193.603C315.463 195.19 316.202 197.354 316.202 200.096C316.202 202.477 315.535 204.641 314.2 206.589C312.866 208.501 310.863 210.034 308.194 211.188C305.561 212.307 302.35 212.866 298.562 212.866Z" fill="white"/>
<defs>
<linearGradient id="paint0_linear_1502_35407" x1="368.327" y1="6.7347" x2="33.6707" y2="366.306" gradientUnits="userSpaceOnUse">
<stop stop-color="#20CDC0"/>
<stop offset="1" stop-color="#0676DF"/>
</linearGradient>
</defs>
</svg>
