<svg width="384" height="360" viewBox="0 0 384 360" fill="none" xmlns="http://www.w3.org/2000/svg">
<rect width="384" height="360" fill="url(#paint0_linear_1502_35414)"/>
<path d="M226.799 205.142L227.041 164.694C227.041 159.729 231.037 155.733 236.002 155.733H267.61L267.489 165.905C267.489 167.601 266.157 168.933 264.461 168.933H245.812C244.116 168.933 242.784 170.265 242.784 171.96V174.14H267.247L267.125 183.828C267.125 185.524 265.793 186.856 264.098 186.856H245.448C243.753 186.856 242.421 188.188 242.421 189.883V192.184H267.004L266.883 202.357C266.883 204.052 265.551 205.384 263.856 205.384H226.799V205.142Z" fill="white"/>
<path d="M174.607 160.214C174.364 159.729 174.243 159.245 174.243 158.76C174.243 157.065 175.575 155.733 177.271 155.733H192.409L198.706 171.355L202.823 161.182C204.155 157.913 207.304 155.733 211.058 155.733H225.106L210.937 180.074L222.563 200.54C222.684 200.661 222.684 200.783 222.805 200.904C222.926 201.267 223.047 201.63 223.047 201.994C223.047 203.689 221.715 205.021 220.02 205.021H205.003L198.464 188.672L193.862 199.572C192.53 202.72 189.381 205.021 185.627 205.021H171.095L185.869 179.832L174.607 160.214Z" fill="white"/>
<path d="M311.086 159.731C310.602 164.212 306.848 167.724 302.246 167.724C302.004 167.724 301.883 167.724 301.641 167.724H300.914C299.703 167.603 298.613 167.603 297.644 167.603C291.226 167.603 290.378 169.177 290.378 170.751C290.378 171.841 290.984 172.568 293.163 173.052L301.398 174.505C308.907 175.838 312.782 181.287 312.782 188.674C312.782 200.542 305.758 206.597 291.71 206.597C284.808 206.597 278.389 205.992 273.303 205.144L273.908 200.663C274.514 196.304 278.268 192.913 282.749 192.913C282.87 192.913 283.112 192.913 283.233 192.913H283.839C284.565 192.913 285.171 192.913 285.897 192.913C292.316 192.913 294.496 192.186 294.496 190.249C294.496 188.432 293.769 187.706 291.831 187.463L284.444 186.373C275.362 185.041 272.213 177.17 272.213 171.841C272.092 157.915 282.143 154.403 294.859 154.403C301.519 154.403 307.211 155.129 311.45 155.856L311.086 159.731Z" fill="white"/>
<path d="M147.602 154.403C164.799 154.403 174.002 166.271 174.002 180.439C174.002 194.729 164.799 206.476 147.602 206.476C130.406 206.476 121.202 194.608 121.202 180.439C121.202 166.271 130.285 154.403 147.602 154.403ZM147.602 168.935C141.426 168.935 139.61 174.142 139.61 180.439C139.61 186.737 141.426 191.944 147.602 191.944C153.778 191.944 155.595 186.737 155.595 180.439C155.595 174.142 153.778 168.935 147.602 168.935Z" fill="white"/>
<path d="M71.792 164.694C71.792 159.729 75.7883 155.733 80.7535 155.733H102.067C111.876 155.733 117.326 159.608 117.326 169.538C117.326 175.836 112.966 179.832 105.821 179.953V180.074C113.209 180.316 117.326 184.676 117.326 191.942C117.326 200.661 112.724 205.021 101.583 205.021H71.5498L71.792 164.694ZM89.1095 194.122H94.9223C98.5553 194.122 100.009 192.063 100.009 189.641C100.009 186.614 98.0709 185.403 95.2856 185.403H89.2306L89.1095 194.122ZM89.4728 174.867H95.5278C98.4342 174.867 99.8875 173.414 99.8875 170.628C99.8875 168.085 98.7976 166.39 95.6489 166.39H89.4728V174.867Z" fill="white"/>
<defs>
<linearGradient id="paint0_linear_1502_35414" x1="368.327" y1="6.7347" x2="33.6707" y2="366.306" gradientUnits="userSpaceOnUse">
<stop stop-color="#20CDC0"/>
<stop offset="1" stop-color="#0676DF"/>
</linearGradient>
</defs>
</svg>
