<svg width="384" height="360" viewBox="0 0 384 360" fill="none" xmlns="http://www.w3.org/2000/svg">
<rect width="384" height="360" fill="url(#paint0_linear_1502_35416)"/>
<path d="M233.914 233L229.693 233C223.865 233 219.14 228.276 219.14 222.447L219.14 128L233.914 128L233.914 233Z" fill="white"/>
<path d="M258.714 233L254.493 233C248.665 233 243.94 228.276 243.94 222.447L243.94 128L258.714 128L258.714 233Z" fill="white"/>
<path d="M130.497 138.553C130.497 132.725 135.222 128 141.05 128H146.326V233H130.497V138.553Z" fill="white"/>
<path d="M160.045 128L160.045 140.136L145.271 140.136L145.271 128L160.045 128Z" fill="white"/>
<path d="M160.045 169.683L160.045 181.291L121 181.291L121 169.683L160.045 169.683Z" fill="white"/>
<path d="M166.377 128H182.206V178.126H166.377V128Z" fill="white"/>
<path d="M192.23 128H208.06V178.126H192.23V128Z" fill="white"/>
<path d="M208.06 177.862C208.06 182.55 205.865 187.046 201.956 190.36C198.047 193.675 192.746 195.538 187.219 195.538C181.691 195.538 176.39 193.675 172.481 190.36C168.573 187.046 166.377 182.55 166.377 177.862L182.199 177.862C182.199 178.991 182.728 180.073 183.669 180.872C184.611 181.67 185.887 182.119 187.219 182.119C188.55 182.119 189.827 181.67 190.768 180.872C191.709 180.073 192.238 178.991 192.238 177.862H208.06Z" fill="white"/>
<defs>
<linearGradient id="paint0_linear_1502_35416" x1="368.327" y1="6.7347" x2="33.6707" y2="366.306" gradientUnits="userSpaceOnUse">
<stop stop-color="#20CDC0"/>
<stop offset="1" stop-color="#0676DF"/>
</linearGradient>
</defs>
</svg>
