<svg width="384" height="360" viewBox="0 0 384 360" fill="none" xmlns="http://www.w3.org/2000/svg">
<rect width="384" height="360" fill="url(#paint0_linear_1502_35405)"/>
<path d="M103.343 150.159H111.773V175.162H103.343V150.159ZM140.477 150.159V175.162H133.548L124.046 163.803V175.162H115.831V150.159H122.76L132.262 161.517V150.159H140.477ZM152.968 156.517V160.803H163.398V167.161H152.968V175.162H144.539V150.159H164.863V156.517H152.968ZM167.526 150.159H175.955V175.162H167.526V150.159ZM204.66 150.159V175.162H197.73L188.229 163.803V175.162H180.013V150.159H186.943L196.444 161.517V150.159H204.66ZM208.721 150.159H217.151V175.162H208.721V150.159ZM238.247 170.804H228.746L227.067 175.162H218.494L229.424 150.159H237.711L248.641 175.162H239.926L238.247 170.804ZM235.925 164.732L233.496 158.445L231.067 164.732H235.925ZM281.484 168.804V175.162H260.695V150.159H281.019V156.517H268.982V159.446H279.555V165.518H268.982V168.804H281.484ZM47.5673 185.159H55.997V210.162H47.5673V185.159ZM84.7011 185.159V210.162H77.7716L68.2704 198.803V210.162H60.055V185.159H66.9845L76.4857 196.517V185.159H84.7011ZM97.1924 191.517V195.803H107.622V202.161H97.1924V210.162H88.7627V185.159H109.087V191.517H97.1924ZM111.75 185.159H120.179V210.162H111.75V185.159ZM148.884 185.159V210.162H141.954L132.453 198.803V210.162H124.238V185.159H131.167L140.668 196.517V185.159H148.884ZM152.945 185.159H161.375V210.162H152.945V185.159ZM182.471 205.804H172.97L171.291 210.162H162.718L173.648 185.159H181.935L192.865 210.162H184.15L182.471 205.804ZM180.149 199.732L177.72 193.445L175.291 199.732H180.149ZM204.919 185.159H217.242C220.028 185.159 222.481 185.671 224.6 186.695C226.743 187.695 228.398 189.135 229.565 191.017C230.756 192.898 231.351 195.112 231.351 197.66C231.351 200.208 230.756 202.423 229.565 204.304C228.398 206.185 226.743 207.638 224.6 208.662C222.481 209.662 220.028 210.162 217.242 210.162H204.919V185.159ZM216.885 203.59C218.695 203.59 220.135 203.078 221.207 202.054C222.302 201.006 222.85 199.541 222.85 197.66C222.85 195.779 222.302 194.326 221.207 193.303C220.135 192.255 218.695 191.731 216.885 191.731H213.349V203.59H216.885ZM234.429 185.159H242.859V210.162H234.429V185.159ZM267.705 203.804V210.162H246.917V185.159H267.241V191.517H255.204V194.446H265.776V200.518H255.204V203.804H267.705ZM280.273 210.733C278.201 210.733 276.177 210.507 274.201 210.055C272.248 209.578 270.641 208.947 269.379 208.162L272.093 202.018C273.284 202.709 274.617 203.268 276.094 203.697C277.57 204.102 278.987 204.304 280.344 204.304C281.511 204.304 282.345 204.197 282.845 203.982C283.345 203.744 283.595 203.399 283.595 202.947C283.595 202.423 283.261 202.03 282.595 201.768C281.952 201.506 280.88 201.22 279.38 200.911C277.451 200.506 275.844 200.077 274.558 199.625C273.272 199.149 272.153 198.387 271.2 197.339C270.248 196.267 269.772 194.827 269.772 193.017C269.772 191.445 270.212 190.016 271.093 188.73C271.974 187.445 273.284 186.433 275.022 185.694C276.784 184.956 278.916 184.587 281.416 184.587C283.131 184.587 284.809 184.778 286.452 185.159C288.119 185.516 289.584 186.052 290.846 186.766L288.31 192.874C285.857 191.636 283.535 191.017 281.345 191.017C279.178 191.017 278.094 191.54 278.094 192.588C278.094 193.088 278.416 193.469 279.059 193.731C279.701 193.969 280.761 194.231 282.238 194.517C284.143 194.874 285.75 195.291 287.06 195.767C288.369 196.22 289.5 196.97 290.453 198.017C291.429 199.065 291.917 200.494 291.917 202.304C291.917 203.875 291.477 205.304 290.596 206.59C289.715 207.852 288.393 208.864 286.631 209.626C284.893 210.364 282.773 210.733 280.273 210.733ZM315.214 203.804V210.162H294.426V185.159H314.75V191.517H302.713V194.446H313.285V200.518H302.713V203.804H315.214ZM318.459 185.159H326.889V203.625H338.176V210.162H318.459V185.159Z" fill="white"/>
<defs>
<linearGradient id="paint0_linear_1502_35405" x1="368.327" y1="6.7347" x2="33.6707" y2="366.306" gradientUnits="userSpaceOnUse">
<stop stop-color="#20CDC0"/>
<stop offset="1" stop-color="#0676DF"/>
</linearGradient>
</defs>
</svg>
