<svg width="384" height="360" viewBox="0 0 384 360" fill="none" xmlns="http://www.w3.org/2000/svg">
<rect width="384" height="360" fill="url(#paint0_linear_1502_35411)"/>
<rect width="55" height="27" transform="translate(47 173)" fill="white"/>
<path d="M69.324 182.041C69.324 182.038 68.8653 182.23 68.2399 183.016L64.758 187.368V189.963C64.758 190.644 65.0152 190.959 65.0152 190.959H60.7063C60.7063 190.959 60.9739 190.641 60.9739 189.967V187.368L57.5268 183.047C56.9013 182.265 56.4287 182.038 56.4287 182.038H60.7967C60.7967 182.038 60.9217 182.478 61.3804 183.183L62.8364 185.422C62.8399 185.426 62.8851 185.422 62.8851 185.422L64.3549 183.183C64.8136 182.485 64.9422 182.041 64.9422 182.041H69.324Z" fill="#0E92D5"/>
<path d="M77.9731 182.045H70.8044C70.8044 182.045 71.0755 182.363 71.0755 183.037V189.977C71.0755 190.655 70.8044 190.962 70.8044 190.962H75.1133C75.1133 190.962 74.8527 190.644 74.8527 189.967V187.812H77.9697C79.9469 187.812 81.4376 186.788 81.4376 184.937C81.4411 183.075 80.0025 182.045 77.9731 182.045ZM76.0654 186.187H74.8666V183.704H76.0828C76.9585 183.704 77.6534 184.05 77.6534 184.933C77.65 185.814 76.9411 186.187 76.0654 186.187Z" fill="#0E92D5"/>
<path d="M92.5718 184.13C92.5718 184.13 92.1792 183.882 91.5016 183.882H87.217V186.027H90.6606C91.3278 186.027 91.8108 185.876 91.8108 185.876V188.003C91.8108 188.003 91.3209 187.811 90.6433 187.811H87.217V189.97C87.217 190.641 87.4603 190.948 87.4603 190.948H83.1653C83.1653 190.948 83.4329 190.644 83.4329 189.97V183.03C83.4329 182.349 83.1583 182.041 83.1583 182.041H92.5684V184.13H92.5718Z" fill="#0E92D5"/>
<path d="M261.106 186.066L258.747 185.353C258.187 185.188 257.587 185.226 257.052 185.462C256.518 185.697 256.084 186.114 255.828 186.639C254.326 189.633 251.229 192.502 245.879 192.502C239.745 192.502 234.04 188.036 234.04 179.91C234.04 171.245 240.068 167.157 245.769 167.157C251.196 167.157 254.162 169.869 255.56 172.864C255.83 173.387 256.275 173.801 256.816 174.033C257.358 174.265 257.963 174.302 258.529 174.137L260.863 173.4C261.191 173.299 261.494 173.13 261.753 172.905C262.011 172.68 262.22 172.403 262.366 172.093C262.512 171.783 262.592 171.445 262.6 171.102C262.608 170.759 262.545 170.418 262.414 170.101C260.167 164.808 254.872 160 245.77 160C235.549 160 226.344 167.749 226.344 179.91C226.344 192.071 235.224 199.767 245.876 199.767C255.025 199.767 260.365 194.581 262.632 189.414C262.774 189.097 262.846 188.752 262.845 188.404C262.844 188.057 262.768 187.713 262.624 187.396C262.48 187.08 262.27 186.797 262.008 186.568C261.746 186.339 261.439 186.168 261.106 186.066Z" fill="white"/>
<path d="M276.85 193.601C274.947 193.601 273.879 192.945 273.734 191.002V162.701C273.734 162.044 273.473 161.413 273.008 160.949C272.544 160.484 271.914 160.223 271.256 160.223H269.054C268.729 160.223 268.407 160.287 268.106 160.412C267.806 160.536 267.533 160.719 267.303 160.949C267.073 161.179 266.89 161.452 266.766 161.753C266.641 162.053 266.577 162.375 266.578 162.701V192.271C266.578 192.378 266.59 192.485 266.614 192.59C266.946 197.226 270.109 199.978 275.012 199.978C275.741 199.982 276.47 199.93 277.191 199.824C277.714 199.744 278.19 199.479 278.534 199.078C278.878 198.676 279.067 198.165 279.067 197.637V195.815C279.065 195.227 278.831 194.665 278.415 194.25C278 193.835 277.437 193.602 276.85 193.601Z" fill="white"/>
<path d="M304.968 175.255C304.968 174.93 304.905 174.608 304.78 174.307C304.656 174.007 304.474 173.733 304.244 173.503C304.014 173.273 303.741 173.091 303.44 172.966C303.14 172.842 302.818 172.777 302.492 172.777H300.289C299.632 172.777 299.002 173.039 298.537 173.503C298.073 173.968 297.812 174.598 297.811 175.255V188.168C297.811 191.235 295.983 193.388 292.808 193.388C289.471 193.388 287.964 191.019 287.964 188.06V175.255C287.964 174.93 287.9 174.608 287.776 174.307C287.652 174.007 287.469 173.733 287.239 173.503C287.009 173.273 286.736 173.091 286.436 172.966C286.135 172.842 285.813 172.777 285.488 172.777H283.284C282.627 172.778 281.997 173.039 281.533 173.504C281.069 173.968 280.808 174.598 280.807 175.255V189.513C280.807 195.271 284.467 199.952 290.87 199.952C293.422 199.952 296.196 199.058 297.767 197.025C297.798 196.986 297.84 196.958 297.888 196.943C297.936 196.929 297.986 196.93 298.034 196.946C298.081 196.961 298.122 196.991 298.152 197.031C298.182 197.071 298.199 197.118 298.201 197.168V197.173C298.229 197.81 298.502 198.412 298.963 198.853C299.425 199.294 300.038 199.54 300.676 199.54H302.562C302.898 199.54 303.23 199.473 303.538 199.341C303.846 199.209 304.125 199.016 304.356 198.773C304.588 198.531 304.767 198.244 304.884 197.929C305.001 197.615 305.053 197.28 305.037 196.945C304.997 196.166 304.968 195.307 304.968 194.463V175.255Z" fill="white"/>
<path d="M323.984 172.078C320.558 172.078 317.91 173.389 316.503 174.972C316.461 175.018 316.406 175.051 316.345 175.065C316.284 175.079 316.221 175.074 316.163 175.052C316.105 175.029 316.055 174.99 316.02 174.938C315.984 174.886 315.966 174.826 315.966 174.763V162.771C315.966 162.446 315.902 162.123 315.778 161.823C315.653 161.522 315.471 161.249 315.241 161.019C315.011 160.789 314.738 160.606 314.437 160.482C314.137 160.357 313.815 160.293 313.489 160.293H311.397C310.74 160.293 310.11 160.554 309.645 161.019C309.18 161.483 308.919 162.114 308.919 162.771V197.066C308.919 197.723 309.181 198.353 309.645 198.818C310.11 199.283 310.74 199.544 311.397 199.544H313.385C314.042 199.544 314.672 199.283 315.137 198.818C315.601 198.353 315.862 197.723 315.863 197.066V196.985C315.863 196.921 315.883 196.859 315.92 196.807C315.957 196.755 316.009 196.716 316.069 196.695C316.13 196.674 316.195 196.672 316.257 196.689C316.318 196.707 316.372 196.743 316.412 196.793C317.931 198.641 320.49 199.898 323.718 199.898C331.253 199.898 336.203 193.925 336.203 185.908C336.2 178.05 331.734 172.078 323.984 172.078ZM322.477 193.496C318.873 193.496 315.859 190.75 315.859 185.961C315.859 181.118 318.873 178.481 322.477 178.481C326.136 178.481 329.042 181.118 329.042 185.961C329.042 190.803 326.14 193.496 322.478 193.496H322.477Z" fill="white"/>
<path d="M126.706 176.874L121.425 175.856C118.65 175.323 117.317 173.67 117.317 171.589C117.317 169.081 119.664 166.789 123.239 166.789C126.686 166.789 128.54 168.467 129.448 170.183C129.715 170.7 130.155 171.107 130.69 171.335C131.226 171.562 131.824 171.595 132.382 171.428L134.347 170.826C134.684 170.722 134.996 170.548 135.26 170.314C135.525 170.081 135.736 169.794 135.881 169.472C136.026 169.15 136.101 168.802 136.1 168.449C136.099 168.096 136.024 167.747 135.878 167.426C134.242 163.828 130.521 160.282 123.184 160.282C116.036 160.282 110.008 165.403 110.008 172.125C110.008 177.833 113.903 181.727 119.931 182.955L125.212 184.022C128.146 184.612 129.798 186.315 129.798 188.504C129.798 191.172 127.612 193.146 123.663 193.146C119.421 193.146 116.898 191.02 115.883 188.272C115.673 187.688 115.251 187.204 114.702 186.915C114.153 186.626 113.515 186.552 112.915 186.708L110.844 187.258C110.518 187.344 110.214 187.496 109.948 187.704C109.683 187.912 109.463 188.172 109.302 188.468C109.141 188.764 109.041 189.089 109.01 189.425C108.98 189.761 109.017 190.099 109.122 190.419C110.663 195.098 115.138 199.706 123.614 199.706C132.416 199.706 137.271 193.837 137.271 188.023C137.27 182.688 133.589 178.208 126.706 176.874Z" fill="white"/>
<path d="M152.468 172.152C145.746 172.152 139.56 177.59 139.56 185.969C139.56 194.826 145.91 200 153.111 200C158.109 200 161.731 197.73 163.731 194.602C163.94 194.278 164.071 193.91 164.114 193.527C164.156 193.144 164.109 192.757 163.976 192.395C163.843 192.034 163.627 191.708 163.347 191.444C163.066 191.18 162.727 190.985 162.358 190.875L161.1 190.5C160.59 190.355 160.048 190.374 159.55 190.555C159.052 190.736 158.624 191.07 158.327 191.509C157.303 192.978 155.66 193.918 153.164 193.918C149.757 193.918 146.899 191.571 146.574 188.276C146.57 188.234 146.576 188.191 146.59 188.15C146.604 188.11 146.626 188.073 146.655 188.041C146.684 188.01 146.72 187.985 146.759 187.968C146.798 187.951 146.841 187.942 146.883 187.943H163.264C163.838 187.944 164.389 187.718 164.797 187.314C165.204 186.91 165.435 186.36 165.438 185.786V185.756C165.432 177.326 160.577 172.152 152.468 172.152ZM158.111 183.089H147.051C147.006 183.089 146.962 183.079 146.921 183.06C146.881 183.041 146.844 183.014 146.815 182.98C146.786 182.946 146.765 182.906 146.752 182.863C146.74 182.82 146.737 182.774 146.744 182.73C146.958 181.353 147.67 180.102 148.744 179.214C149.819 178.327 151.182 177.864 152.575 177.915C156.45 177.915 158.181 180.252 158.418 182.742C158.423 182.785 158.419 182.829 158.406 182.871C158.393 182.913 158.371 182.951 158.342 182.984C158.313 183.017 158.278 183.043 158.238 183.061C158.198 183.079 158.155 183.089 158.111 183.089Z" fill="white"/>
<path d="M182.976 172.738C180.969 172.738 177.849 173.252 176.07 175.852C176.032 175.906 175.979 175.947 175.917 175.968C175.855 175.989 175.787 175.99 175.725 175.971C175.662 175.951 175.607 175.912 175.568 175.86C175.529 175.807 175.508 175.743 175.508 175.677V175.43C175.508 175.105 175.444 174.783 175.319 174.482C175.195 174.182 175.013 173.908 174.783 173.678C174.553 173.448 174.28 173.266 173.979 173.141C173.678 173.016 173.356 172.952 173.031 172.952H171.103C170.446 172.953 169.816 173.214 169.352 173.679C168.887 174.143 168.627 174.773 168.627 175.43V196.725C168.627 197.382 168.888 198.012 169.353 198.477C169.817 198.941 170.448 199.202 171.105 199.203H173.245C173.902 199.202 174.533 198.941 174.997 198.477C175.462 198.012 175.723 197.382 175.723 196.725V187.197C175.723 181.542 178.868 179.781 182.498 179.781C182.623 179.781 182.781 179.781 182.961 179.781C183.286 179.787 183.61 179.728 183.912 179.607C184.214 179.487 184.49 179.307 184.722 179.079C184.954 178.851 185.139 178.579 185.265 178.279C185.391 177.979 185.456 177.657 185.456 177.331V175.19C185.456 174.866 185.391 174.545 185.266 174.246C185.141 173.946 184.958 173.675 184.728 173.447C184.497 173.219 184.223 173.039 183.923 172.917C183.622 172.795 183.3 172.734 182.976 172.738Z" fill="white"/>
<path d="M210.879 172.568H208.671C208.159 172.568 207.659 172.727 207.241 173.022C206.823 173.317 206.506 173.735 206.335 174.218L200.874 189.626C200.852 189.686 200.813 189.737 200.76 189.774C200.708 189.81 200.646 189.83 200.583 189.83C200.519 189.83 200.457 189.81 200.405 189.774C200.353 189.737 200.313 189.686 200.291 189.626L194.582 174.184C194.406 173.709 194.09 173.299 193.674 173.01C193.259 172.72 192.764 172.565 192.258 172.566H189.768C189.362 172.565 188.962 172.665 188.603 172.856C188.244 173.048 187.938 173.324 187.712 173.661C187.485 173.999 187.345 174.387 187.304 174.791C187.262 175.195 187.321 175.604 187.475 175.98L196.33 197.657C196.516 198.112 196.834 198.502 197.242 198.777C197.651 199.051 198.132 199.198 198.624 199.198H202.462C202.962 199.198 203.45 199.047 203.862 198.765C204.274 198.483 204.591 198.083 204.771 197.617L213.187 175.94C213.332 175.565 213.384 175.16 213.338 174.76C213.291 174.361 213.148 173.978 212.921 173.646C212.694 173.314 212.389 173.043 212.033 172.855C211.678 172.667 211.282 172.569 210.879 172.568Z" fill="white"/>
<path d="M219.881 168.655C220.434 168.662 220.983 168.559 221.497 168.352C222.01 168.145 222.477 167.838 222.871 167.449C223.265 167.06 223.577 166.597 223.791 166.086C224.004 165.576 224.114 165.028 224.114 164.474C224.114 163.921 224.004 163.373 223.791 162.862C223.577 162.351 223.265 161.888 222.871 161.499C222.477 161.11 222.01 160.804 221.497 160.597C220.983 160.39 220.434 160.287 219.881 160.294C219.327 160.287 218.778 160.39 218.265 160.597C217.751 160.804 217.284 161.11 216.89 161.499C216.497 161.888 216.184 162.351 215.971 162.862C215.757 163.373 215.647 163.921 215.647 164.474C215.647 165.028 215.757 165.576 215.971 166.086C216.184 166.597 216.497 167.06 216.89 167.449C217.284 167.838 217.751 168.145 218.265 168.352C218.778 168.559 219.327 168.662 219.881 168.655Z" fill="white"/>
<path d="M219.851 172.165C219.231 172.165 218.617 172.294 218.049 172.543C217.481 172.793 216.971 173.157 216.551 173.614C216.132 174.071 215.811 174.61 215.611 175.197C215.41 175.784 215.333 176.406 215.385 177.024L217.115 197.582C217.152 198.023 217.353 198.434 217.679 198.734C218.005 199.034 218.432 199.2 218.875 199.2H220.868C221.311 199.2 221.739 199.034 222.065 198.733C222.391 198.433 222.592 198.021 222.628 197.579L224.32 177.016C224.371 176.398 224.293 175.777 224.092 175.19C223.89 174.604 223.569 174.066 223.149 173.61C222.729 173.154 222.22 172.79 221.652 172.542C221.084 172.293 220.471 172.164 219.851 172.165Z" fill="white"/>
<defs>
<linearGradient id="paint0_linear_1502_35411" x1="368.327" y1="6.7347" x2="33.6707" y2="366.306" gradientUnits="userSpaceOnUse">
<stop stop-color="#20CDC0"/>
<stop offset="1" stop-color="#0676DF"/>
</linearGradient>
</defs>
</svg>
